<svg xmlns="http://www.w3.org/2000/svg" viewBox="3 4 18 17">
  <path fill="#000" fill-rule="evenodd" d="M12 20.5C12 20.5 3.5 14.3 3.5 8.8C3.5 6.3 5.5 4.7 7.7 4.7C9.4 4.7 10.9 5.8 12 7.2C13.1 5.8 14.6 4.7 16.3 4.7C18.5 4.7 20.5 6.3 20.5 8.8C20.5 14.3 12 20.5 12 20.5ZM9.5 13.6a2.5 2.1 0 1 0 5 0a2.5 2.1 0 1 0 -5 0ZM7.3 10.7a1.2 1.2 0 1 0 2.4 0a1.2 1.2 0 1 0 -2.4 0ZM9.6 9.1a1.2 1.2 0 1 0 2.4 0a1.2 1.2 0 1 0 -2.4 0ZM12 9.1a1.2 1.2 0 1 0 2.4 0a1.2 1.2 0 1 0 -2.4 0ZM14.3 10.7a1.2 1.2 0 1 0 2.4 0a1.2 1.2 0 1 0 -2.4 0Z"/>
</svg>
